<svg width="28" height="30" viewBox="0 0 28 30" fill="none" xmlns="http://www.w3.org/2000/svg">
<g filter="url(#filter0_d_1583_402)">
<path d="M21.8284 9.93621C22.4517 9.93621 22.7176 10.7286 22.2205 11.1046L18.8905 13.6234C18.1688 14.1693 17.8661 15.1087 18.1334 15.9732L19.3864 20.0261C19.5735 20.6312 18.8729 21.1193 18.3701 20.7341L15.3075 18.3879C14.536 17.7969 13.464 17.7969 12.6925 18.3879L9.61357 20.7466C9.11152 21.1312 8.41161 20.645 8.59677 20.0403L9.83243 16.0046C10.0953 15.146 9.79694 14.2145 9.08413 13.6684L5.73432 11.1022C5.24111 10.7244 5.50831 9.93621 6.12961 9.93621H10.1274C11.0702 9.93621 11.903 9.32198 12.1815 8.42125L13.379 4.5479C13.5678 3.93721 14.4322 3.93722 14.621 4.5479L15.8185 8.42124C16.0969 9.32198 16.9298 9.93621 17.8726 9.93621H21.8284Z" stroke="#FAFAFA" stroke-width="1.5"/>
</g>
<defs>
<filter id="filter0_d_1583_402" x="-2" y="0" width="32" height="32" filterUnits="userSpaceOnUse" color-interpolation-filters="sRGB">
<feFlood flood-opacity="0" result="BackgroundImageFix"/>
<feColorMatrix in="SourceAlpha" type="matrix" values="0 0 0 0 0 0 0 0 0 0 0 0 0 0 0 0 0 0 127 0" result="hardAlpha"/>
<feOffset dy="4"/>
<feGaussianBlur stdDeviation="2"/>
<feComposite in2="hardAlpha" operator="out"/>
<feColorMatrix type="matrix" values="0 0 0 0 0 0 0 0 0 0 0 0 0 0 0 0 0 0 0.25 0"/>
<feBlend mode="normal" in2="BackgroundImageFix" result="effect1_dropShadow_1583_402"/>
<feBlend mode="normal" in="SourceGraphic" in2="effect1_dropShadow_1583_402" result="shape"/>
</filter>
</defs>
</svg>
